PathFileType	4	(X/Y/Z)	C:\Users\WrightLab\Desktop\Jo\P1_boxCal5.trc
DataRate	CameraRate	NumFrames	NumMarkers	Units	OrigDataRate	OrigDataStartFrame	OrigNumFrames
100.00	100.00	       29	19	mm	100.00	733	       976
Frame#	Time	Headset_Front			Headset_Back			Headset_Left			Headset_Right			Left_Shoulder			Right_Shoulder			Sternum			C7			Left Elbow			Right Elbow			Left Wrist			Right Wrist			Left ASIS			Right ASIS			S2			Left Knee			Right Knee			Left Ankle			Right Ankle			
		X1	Y1	Z1	X2	Y2	Z2	X3	Y3	Z3	X4	Y4	Z4	X5	Y5	Z5	X6	Y6	Z6	X7	Y7	Z7	X8	Y8	Z8	X9	Y9	Z9	X10	Y10	Z10	X11	Y11	Z11	X12	Y12	Z12	X13	Y13	Z13	X14	Y14	Z14	X15	Y15	Z15	X16	Y16	Z16	X17	Y17	Z17	X18	Y18	Z18	X19	Y19	Z19	

733	7.320							-131.48770	412.11536	-1641.27966	-64.25523	945.74475	-1420.27905	-39.43833	926.12823	-1658.46985	-596.97864	978.23981	-1685.14819										-496.09790	1238.02893	-1628.86646	-532.48560	911.85925	-1438.02771				-482.65982	407.25351	-1622.21143				-486.72543	45.25946	-1638.53137							-207.66869	858.87915	-1500.66138	-408.67670	858.61725	-1504.43286	
734	7.330							-131.48480	412.11066	-1641.27429	-64.41350	946.03564	-1420.25916	-39.53306	926.10358	-1658.38538	-597.19104	978.26544	-1685.05310										-496.13620	1238.02356	-1628.92224	-533.12524	912.12256	-1436.74780				-482.66037	407.19052	-1622.19958				-486.72690	45.26062	-1638.53967							-207.63608	858.92804	-1500.46387	-409.19489	858.59711	-1502.13184	
735	7.340							-131.48486	412.11948	-1641.28271	-64.52626	946.26385	-1420.19690	-39.64089	926.09760	-1658.23608	-597.43530	978.26855	-1684.85986										-496.16833	1238.01721	-1628.97620	-533.78119	912.86334	-1435.20422				-482.63477	407.29553	-1622.08838				-486.71317	45.29074	-1638.47314							-207.62860	858.92480	-1500.41650	-409.19501	858.62463	-1502.13794	
736	7.350							-131.48076	412.12616	-1641.28796	-64.68280	946.32184	-1420.46899	-40.06512	925.27655	-1656.80933	-597.61951	978.14014	-1684.56885										-496.22543	1238.00793	-1629.06421	-533.96570	912.59222	-1436.04529				-482.62579	407.22522	-1622.02417				-486.70242	45.29854	-1638.41699							-207.61749	858.94153	-1500.34912	-409.15561	858.63129	-1501.92737	
737	7.360							-131.48245	412.11133	-1641.27429	-64.84380	946.47870	-1420.40125	-40.20399	925.21033	-1656.75476	-597.77972	978.12860	-1684.54529										-496.28418	1237.99170	-1629.17981	-534.03650	912.51715	-1436.37451				-482.59860	407.24438	-1621.88440				-486.67877	45.34911	-1638.30212							-207.58853	858.98499	-1500.17371	-409.14969	858.62457	-1501.89417	
738	7.370							-131.50427	412.11560	-1641.28455	-65.06770	946.67883	-1420.38367	-40.32415	925.20264	-1656.59094	-597.93500	978.19031	-1684.70227										-496.34039	1237.97449	-1629.29651	-534.17255	912.36316	-1437.00476				-482.55798	407.34067	-1621.69165				-486.68546	45.32873	-1638.33301							-207.56883	859.00647	-1500.05322	-409.10260	858.69897	-1501.65564	
739	7.380							-131.50851	412.11768	-1641.28772	-66.25253	946.91388	-1418.40198	-40.44064	925.19159	-1656.44080	-598.05463	978.08856	-1684.55579										-496.40106	1237.95630	-1629.42139	-534.24005	912.26898	-1437.31348				-482.52628	407.39035	-1621.53503				-486.67029	45.34427	-1638.25488							-207.54070	859.07996	-1499.88733	-409.06201	858.77893	-1501.45300	
740	7.390							-131.51793	412.12344	-1641.29590	-66.68241	947.53711	-1418.41541	-40.56793	925.17279	-1656.31421	-598.13037	977.89624	-1684.36145										-496.87079	1238.46533	-1630.37085	-534.30719	912.11224	-1437.60681				-482.47720	407.45261	-1621.28918				-486.64648	45.40377	-1638.14160							-207.51033	859.13953	-1499.70532	-408.48706	858.86987	-1503.46204	
741	7.400							-131.51512	412.10538	-1641.27783	-66.98994	947.63849	-1418.98035	-40.69327	925.18146	-1656.10339	-598.18372	977.96252	-1684.63257										-497.28967	1237.98645	-1629.21216	-534.32526	912.04980	-1437.68140				-482.44141	407.45895	-1621.10071				-486.66971	45.36242	-1638.25659							-207.52119	859.14319	-1499.77405	-408.94513	858.95691	-1500.85950	
742	7.410							-131.50630	412.17236	-1641.06421	-68.27139	948.19690	-1416.96326	-40.80192	925.21252	-1655.84314	-598.25348	977.70996	-1684.45251										-497.36209	1237.95593	-1629.39380	-534.75055	911.70917	-1436.16028				-482.43729	407.38797	-1621.06213				-486.66217	45.37680	-1638.21948							-207.45633	859.24078	-1499.38110	-408.89655	859.05261	-1500.61707	
743	7.420							-131.50742	412.10895	-1641.27905	-68.58993	948.49628	-1417.29614	-40.92862	925.22388	-1655.62390	-598.21869	977.71503	-1684.68433										-497.45334	1237.93433	-1629.55994	-534.74347	911.68146	-1436.11987				-482.39481	407.45679	-1620.85278				-486.66602	45.34512	-1638.23206							-207.44460	859.27588	-1499.31250	-408.34753	859.11090	-1502.75879	
744	7.430							-131.51077	412.18082	-1641.07349	-69.24447	948.45752	-1416.15161	-41.03219	925.29443	-1655.30066	-598.24091	977.50800	-1684.57971										-497.54004	1237.91699	-1629.70557	-534.65845	911.82520	-1435.73657				-482.42224	407.36465	-1620.97656				-486.65988	45.35411	-1638.20117							-207.42479	859.32904	-1499.19592	-408.24347	859.27594	-1502.23120	
745	7.440							-131.51961	412.12122	-1641.29419	-69.47871	948.62665	-1416.43774	-41.15602	925.31793	-1655.05676	-598.18488	977.46680	-1684.79370										-497.62976	1237.89038	-1629.88855	-534.60986	911.84064	-1435.50281				-482.38239	407.38055	-1620.76868				-486.66568	45.33410	-1638.22717							-207.42877	859.34064	-1499.22266	-408.16498	859.39069	-1501.83142	
746	7.450							-131.52751	412.11206	-1641.28772	-69.69442	948.97748	-1416.21716	-41.24958	925.37189	-1654.78552	-598.12848	977.07538	-1684.34363										-497.69528	1237.86548	-1630.04321	-534.55621	911.83557	-1435.23999				-482.39487	407.28903	-1620.81311				-486.67206	45.28087	-1638.24780							-207.35550	859.43683	-1498.77673	-408.15509	859.41833	-1501.78369	
747	7.460							-131.57240	412.11050	-1641.44849	-69.97837	949.31659	-1416.11145	-41.90876	925.25543	-1653.78467	-598.08710	976.83551	-1684.21252										-497.77762	1237.83789	-1630.22302	-534.45465	911.90326	-1434.75940				-482.39404	407.18692	-1620.78418				-486.66644	45.30602	-1638.22388							-207.33577	859.47015	-1498.65759	-408.09149	859.51294	-1501.46008	
748	7.470							-131.60487	412.11725	-1641.46411	-70.51821	949.73132	-1416.46033	-41.98209	925.43237	-1653.38611	-598.00439	976.60333	-1684.02051										-497.84338	1237.81677	-1630.36340	-534.37689	912.01141	-1434.40356				-482.37631	407.20026	-1620.69312				-486.68961	45.24966	-1638.33459							-207.33354	859.50146	-1498.64819	-408.02151	859.64471	-1501.10962	
749	7.480							-131.65489	412.14932	-1641.46045	-71.78067	950.18695	-1414.74512	-42.03386	925.54236	-1653.02478	-597.87262	976.49182	-1684.13611										-497.92615	1237.77942	-1630.58081	-534.21661	912.26465	-1433.67725				-482.39789	407.15112	-1620.79602				-486.67023	45.29625	-1638.24194							-206.55176	858.81714	-1501.43579	-407.93661	859.75403	-1500.67407	
750	7.490							-131.66168	412.10580	-1641.67542	-72.82745	950.53998	-1414.07312	-42.17881	925.08972	-1651.47449	-597.72626	976.17072	-1683.88647													-533.72723	912.60553	-1434.88342	62.31034	590.59485	-273.43506	-482.40338	407.07733	-1620.80750				-486.66769	45.28864	-1638.22620							-206.51596	858.87756	-1501.21973	-407.87122	859.88684	-1500.34839	
751	7.500							-131.68706	412.07874	-1641.65662	-74.38009	950.96014	-1412.22498	-42.38155	925.52643	-1651.13757	-597.65875	975.84918	-1683.57556													-533.58606	912.85413	-1434.24902	62.18642	590.57233	-273.48395	-482.39621	407.02203	-1620.75586				-486.67081	45.29120	-1638.24377							-206.49834	858.90356	-1501.11267	-407.87546	859.83569	-1500.36108	
752	7.510							-131.68909	412.14490	-1641.46582	-74.85677	951.19153	-1412.68750	-42.26569	926.17407	-1651.31445	-597.55798	975.52283	-1683.27271													-533.36041	913.21680	-1433.22742	62.06199	590.54004	-273.55826	-482.40613	406.94312	-1620.78955				-486.67838	45.25733	-1638.27588							-206.47150	858.94446	-1500.94995	-407.74548	860.04462	-1499.70276	
753	7.520							-131.70795	412.08084	-1641.66455	-75.39973	951.51379	-1413.16101	-42.27583	926.30115	-1650.71167	-597.51331	975.24426	-1682.89343													-533.17023	913.54077	-1432.37036	61.96315	590.53735	-273.55756	-482.40088	406.93683	-1620.76001				-486.68124	45.24085	-1638.28699							-206.42537	859.02649	-1500.67200	-407.77408	859.97137	-1499.84204	
754	7.530							-131.70691	412.11581	-1641.69763	-76.67523	952.12598	-1412.78064	-42.22933	926.49237	-1649.98071	-597.44080	975.04950	-1682.64111													-533.05646	913.74738	-1431.86023	61.84921	590.51825	-273.59857	-482.36777	407.02142	-1620.60449				-486.66489	45.30476	-1638.21521							-206.42795	859.06195	-1500.69336	-407.61121	860.26434	-1499.02332	
755	7.540							-131.79085	412.15378	-1641.77002	-77.50787	952.87177	-1411.95642	-42.26386	926.68384	-1649.22571	-597.38593	974.74414	-1682.11841													-532.42542	913.11591	-1433.54724	61.71158	590.49524	-273.64777	-482.32211	407.06613	-1620.37244				-486.66959	45.30140	-1638.23975							-206.37828	859.15021	-1500.39404	-407.70294	859.66815	-1497.98511	
756	7.550							-131.71750	412.18146	-1641.50879	-79.32790	953.64417	-1409.77612	-42.17957	926.96252	-1648.01135	-597.35870	974.57288	-1681.78015													-532.33978	913.33606	-1433.17712	61.55407	590.46942	-273.70288	-482.35175	406.96198	-1620.50464				-486.69110	45.22438	-1638.33606							-206.33888	859.19202	-1500.15259	-407.57779	859.78363	-1497.33447	
757	7.560							-131.82063	412.13513	-1641.76062	-80.20101	954.39484	-1409.00012	-42.09556	927.20831	-1646.91150	-597.34924	974.23828	-1681.04797													-531.77466	913.11841	-1434.82861	61.38882	590.43701	-273.77460	-482.32672	406.96332	-1620.37195				-486.66858	45.27375	-1638.22705							-206.27815	859.31256	-1499.78845	-407.50397	859.89435	-1496.95898	
758	7.570							-131.89069	412.17142	-1641.72400	-81.47086	955.42603	-1408.95593	-42.41163	927.12695	-1645.28027	-597.38831	974.08038	-1680.66589													-531.73578	913.20728	-1434.65808	61.18456	590.34814	-273.98987	-482.30905	406.99600	-1620.28577				-486.67648	45.25864	-1638.26587							-206.24478	859.39539	-1499.59070	-407.26773	860.69696	-1497.25977	
759	7.580							-131.81569	412.15717	-1641.67908	-82.57253	956.56067	-1408.41174	-42.39119	927.34473	-1644.03870	-597.40448	973.74072	-1679.94507													-531.65558	913.38477	-1434.30469	60.98418	590.19934	-274.36093	-482.31177	406.96304	-1620.29224				-486.68961	45.25674	-1638.33643				-499.05695	1236.66943	-1629.41138	-205.66727	859.59705	-1501.36694	-407.25198	860.30103	-1495.68323	
760	7.590							-131.79489	412.13980	-1641.75781	-84.63863	957.70660	-1406.60938	-42.34409	927.58020	-1642.76294	-597.54053	973.58588	-1679.45166													-531.58472	913.49524	-1433.98242	60.77583	590.07025	-274.68045	-482.28140	407.01218	-1620.14258				-486.67990	45.25872	-1638.28442				-499.13037	1236.67175	-1629.47131	-205.56850	859.76660	-1500.77039	-407.00128	860.60309	-1494.39368	
761	7.600							-131.81247	412.17386	-1641.69409	-86.20849	959.52600	-1406.62781	-42.42222	927.89972	-1641.40515	-597.67065	973.38062	-1678.73926													-531.08875	913.50256	-1435.66931	60.54423	589.93945	-275.00266	-482.27332	406.94672	-1620.08350				-486.70908	45.17772	-1638.42114				-498.98843	1235.91772	-1628.09241	-205.48640	859.93964	-1500.27930	-406.70264	860.95886	-1492.85693	
